<svg fill="none" height="32" viewBox="0 0 24 32" width="24" xmlns="http://www.w3.org/2000/svg"><g fill="#fff"><path d="m20.7344 7.4438-.022-.01291-.0508-.01548c.0205.01723.046.02724.0728.02839z"/><path d="m21.0543 9.72986-.0245.00688z"/><path d="m20.7442 7.44017c-.0032-.00041-.0062-.00113-.0092-.00218-.0002.00202-.0002.00408 0 .0061.0033-.00045.0065-.0018.0092-.00392z"/><path d="m20.7349 7.44458h.0041v-.00256z"/><path d="m21.0347 9.72578.037-.0211.0138-.00775.0125-.01334c-.0235.01011-.0449.02442-.0633.04219z"/><path d="m20.7985 7.49371-.0362-.03445-.0245-.01334c.0132.02327.035.04043.0607.04779z"/><path d="m11.7001 29.6777c-.0289.0125-.0542.0321-.0736.0568l.0228-.0145c.0155-.0142.0374-.031.0508-.0423z"/><path d="m16.9834 28.6381c0-.0325-.0159-.0265-.0121.0896 0-.0092.0039-.0188.0056-.0278.0022-.0207.0039-.041.0065-.0618z"/><path d="m16.4354 29.6777c-.0289.0125-.0542.0321-.0736.0568l.0228-.0145c.0155-.0142.0375-.031.0508-.0423z"/><path d="m7.97934 29.925c-.02194-.0191-.04879-.0316-.07748-.0363.02324.0112.04648.0225.06197.031z"/><path d="m7.14239 29.1229c-.00343-.0337-.01384-.0665-.03057-.0963.01186.0308.02176.0626.02969.0946z"/></g><path d="m12.7664 14.7825c-1.1494.492-2.4538 1.05-4.1444 1.05-.70721-.0015-1.41101-.0985-2.09221-.2885l1.16923 12.0046c.04139.5016.26996.9695.64033 1.3105.37036.341.85544.5301 1.35889.5301 0 0 1.65786.0861 2.21106.0861.5954 0 2.3806-.0861 2.3806-.0861.5034 0 .9884-.1894 1.3587-.5304.3702-.341.5988-.8086.6401-1.3102l1.2523-13.2655c-.5596-.1911-1.1244-.3181-1.7611-.3181-1.1012-.0005-1.9885.3788-3.0135.8175z" fill="#fd0"/><path d="m2.91016 9.66089.0198.01851.01291.00776c-.00994-.00988-.02091-.01869-.03271-.02627z" fill="#fff"/><path d="m22.9478 8.55291-.1761-.88812c-.158-.79685-.5166-1.54979-1.3345-1.83779-.2622-.09214-.5597-.13173-.7607-.32245-.2011-.1907-.2605-.48688-.307-.76154-.0861-.50412-.167-1.00867-.2553-1.51191-.0761-.43266-.1364-.91869-.3349-1.3156-.2583-.53296-.7942-.84464-1.3272-1.05085-.2731-.101944-.5518-.188184-.8347-.258296-1.3316-.351287-2.7315-.480436-4.1014-.5540514-1.6442-.0907269-3.2928-.0633921-4.93307.0817944-1.22088.111068-2.50679.245385-3.66697.667702-.42403.154548-.861.340091-1.18342.667701-.39564.40252-.52479 1.02501-.23594 1.52697.20536.35645.55321.6083.92215.7749.48055.21467.98242.37802 1.49727.48733 1.43354.31685 2.91833.44125 4.38288.49421 1.6233.0655 3.2491.01241 4.8646-.15887.3995-.04391.7983-.09658 1.1964-.15797.4688-.07191.7697-.68494.6315-1.112-.1653-.51055-.6096-.70858-1.1119-.63152-.0741.01161-.1477.02237-.2218.03313l-.0533.00776c-.1702.02154-.3404.0416-.5106.06027-.3516.03788-.704.06888-1.0573.093-.7913.05509-1.5847.08048-2.3776.08178-.7793 0-1.5589-.02196-2.33637-.07318-.35473-.02324-.7086-.05281-1.06161-.08869-.16057-.01679-.32072-.03443-.48085-.05424l-.15242-.01937-.03312-.00473-.158-.02282c-.32288-.04866-.64575-.1046-.96518-.17221-.03222-.00715-.06107-.02507-.08174-.05083-.02066-.02575-.03192-.05778-.03192-.09079 0-.03302.01126-.06505.03192-.0908.02067-.02576.04952-.04369.08174-.05084h.00603c.27682-.05898.55576-.10935.83558-.15326.0933-.01463.18684-.02898.28069-.04305h.00258c.17521-.01162.3513-.04305.52564-.06371 1.51693-.15779 3.04283-.21158 4.56713-.16101.74.02153 1.4796.06501 2.2162.13992.1584.01636.316.03358.4736.05295.0602.00732.1209.01592.1817.02325l.1222.01764c.3565.0531.711.11753 1.0638.1933.5226.11365 1.1937.15067 1.4262.72323.0741.18167.1076.38358.1485.57428l.0521.24324c.0014.00435.0024.00883.003.01333.1231.574.2464 1.148.3698 1.722.0091.0424.0093.08621.0006.1287-.0086.04251-.0259.08274-.0508.11826-.0248.03551-.0568.06551-.0938.08812-.037.02262-.0782.03736-.1212.04334h-.0034l-.0754.01033-.0744.00988c-.2359.03073-.4721.05942-.7086.08612-.4658.05309-.9323.099-1.3996.13776-.9284.07718-1.8587.12785-2.7909.15197-.475.01261-.9498.01851-1.4245.01764-1.8895-.00148-3.77728-.11132-5.65414-.32891-.20321-.02409-.4064-.04994-.6096-.07619.15757.02025-.11452-.01551-.16961-.02324-.12915-.01809-.2583-.03688-.38745-.05639-.43352-.06503-.86443-.14509-1.29709-.21527-.52305-.08609-1.02329-.04303-1.49641.21527-.38835.21251-.70267.53839-.90103.93418-.20405.42188-.26475.88121-.35602 1.33454-.09126.4533-.233328.94106-.179516 1.40642.115806 1.00437.817946 1.82057 1.827896 2.00307.95011.1722 1.90538.3117 2.86323.4305 3.76268.4609 7.56394.516 11.33844.1645.3074-.0287.6143-.06.9208-.0939.0958-.0105.1927.0005.2836.0323s.1736.0835.2419.1514c.0684.0678.1207.1501.1531.2408s.0442.1875.0343.2833l-.0955.929c-.1926 1.8772-.3852 3.7544-.5778 5.6313-.2008 1.9711-.4031 3.9421-.6065 5.9128-.0574.5552-.1148 1.1101-.1722 1.6648-.0551.5464-.0629 1.1099-.1666 1.6498-.1636.8489-.7383 1.3703-1.5769 1.5609-.7683.1749-1.5532.2668-2.3411.2738-.8735.0047-1.7465-.0341-2.62-.0293-.93246.0052-2.07455-.0808-2.79434-.7749-.63242-.6094-.71981-1.5639-.80591-2.3893-.11478-1.0926-.22857-2.185-.34139-3.2773l-.63282-6.0739-.40939-3.93c-.00691-.065-.01379-.1292-.02024-.1946-.04909-.4688-.381-.9277-.90406-.904-.4477.0197-.95655.4003-.90403.904l.30349 2.9136.62766 6.027c.17882 1.7119.35718 3.424.53512 5.1366.03445.328.06673.657.10288.9851.19676 1.7926 1.56572 2.7586 3.26102 3.0306.99015.1593 2.00441.1921 3.00921.2084 1.288.0208 2.589.0703 3.8559-.1631 1.8774-.3446 3.286-1.598 3.4871-3.5426.0574-.5614.1148-1.1228.1722-1.6845.1908-1.8575.3814-3.7151.5717-5.5729l.6225-6.0699.2854-2.7819c.0142-.138.0725-.2677.1661-.3699.0937-.1023.2178-.1717.3539-.198.5368-.1046 1.05-.2832 1.4319-.6918.6078-.6504.7288-1.49852.514-2.35349zm-20.19423.60012c.00818-.00388-.00688.06627-.01334.099-.00129-.04952.00129-.09342.01334-.099zm.0521.40294c.0043-.00303.01721.01421.03056.03487-.02023-.01896-.03315-.03315-.031-.03487zm.05123.06757c.01851.03143.02841.05124 0 0zm.10288.08352h.00259c0 .00303.00473.00603.00645.00906-.00285-.00333-.00602-.00636-.00947-.00906zm18.01722-.12485c-.1929.18339-.4835.26864-.7706.31127-3.2202.47782-6.4872.71982-9.7426.61302-2.32987-.0796-4.63518-.3384-6.94178-.66426-.22602-.03185-.47097-.07318-.62638-.23979-.29274-.31427-.14895-.94709-.07276-1.32678.06975-.34785.2032-.81149.61691-.861.64575-.07576 1.39566.19673 2.03453.2936.76915.11737 1.54118.21137 2.31606.28197 3.30712.30136 6.66972.25443 9.96212-.18639.6002-.08067 1.1981-.17436 1.7939-.28112.5308-.09515 1.1193-.27379 1.44.27594.22.37454.2493.87563.2153 1.29881-.0105.18437-.0911.35778-.2252.48473z" fill="#fff"/></svg>